<svg xmlns="http://www.w3.org/2000/svg"  viewBox="0 0 48 48" width="48px" height="48px" baseProfile="basic"><linearGradient id="kc7hH-6k49NRxmckDagkua" x1="-207.274" x2="-188.659" y1="79.108" y2="97.723" gradientTransform="translate(222.127 -52.643)" gradientUnits="userSpaceOnUse"><stop offset="0" stop-color="#55adfd"/><stop offset="1" stop-color="#438ffd"/></linearGradient><path fill="url(#kc7hH-6k49NRxmckDagkua)" d="M6.999,41.499c0-0.635,0-4.156,0-5.5	c0-6.624,5.376-12,12-12c0.521,0,1.212,0,2.009,0c0.819,0,2.013,2,2.991,2c1.063,0,1.917-2,3.003-2c2.521,0,4.876,0,5.997,0	c4.416,0,8,3.584,8,8c0,0.691,0,3.311,0,4c0,4.416-3.584,8-8,8c-0.793,0-3.107,0-5.992,0c-1.628,0-3.187-3-5.008-3	c-2.181,0-4.629,3-6.551,3c-3.192,0-5.623,0-5.949,0C8.119,43.999,6.999,42.879,6.999,41.499z"/><linearGradient id="kc7hH-6k49NRxmckDagkub" x1="-203.901" x2="-187.985" y1="75.663" y2="91.579" gradientTransform="translate(218.61 -49.343)" gradientUnits="userSpaceOnUse"><stop offset="0" stop-color="#427fdb"/><stop offset="1" stop-color="#0c52bb"/></linearGradient><path fill="url(#kc7hH-6k49NRxmckDagkub)" d="M12.999,41.499v-9.5c0-4.416,3.584-8,8-8	c1.06,0,4.939,0,6,0c4.416,0,8,3.584,8,8c0,0.691,0,3.311,0,4c0,4.416-3.584,8-8,8h-11.5C14.119,43.999,12.999,42.879,12.999,41.499	z"/><linearGradient id="kc7hH-6k49NRxmckDagkuc" x1="-202.589" x2="-191.884" y1="70.278" y2="80.983" gradientTransform="translate(220.932 -63.935)" gradientUnits="userSpaceOnUse"><stop offset="0" stop-color="#427fdb"/><stop offset="1" stop-color="#0c52bb"/></linearGradient><path fill="url(#kc7hH-6k49NRxmckDagkuc)" d="M23.999,3.998c4.416,0,8.001,3.585,8.001,8.001	c0,4.416-3.585,8.001-8.001,8.001s-8.001-3.585-8.001-8.001C15.998,7.583,19.583,3.998,23.999,3.998z"/></svg>