<svg xmlns="http://www.w3.org/2000/svg"  viewBox="0 0 48 48" width="48px" height="48px" fill-rule="evenodd" clip-rule="evenodd" baseProfile="basic"><linearGradient id="00wCqH7f0ElurH3hbcIXXa" x1="-208.197" x2="-180.197" y1="-150.795" y2="-122.795" gradientTransform="translate(215.243 161.751)" gradientUnits="userSpaceOnUse"><stop offset="0" stop-color="#a235d4"/><stop offset="1" stop-color="#831bb3"/></linearGradient><path fill="url(#00wCqH7f0ElurH3hbcIXXa)" d="M39.004,13.999v27c0,1.105-0.895,2-2,2h-26	c-1.105,0-2-0.895-2-2v-34c0-1.104,0.895-2,2-2h19.002l1.997,7L39.004,13.999z"/><path fill="#ce97e6" fill-rule="evenodd" d="M30.002,11.999l0.003-7	l8.999,8.999l-7.001,0.001L30.002,11.999z" clip-rule="evenodd"/><path fill="#fff" fill-rule="evenodd" d="M21.001,21.999v2.001	h10.001v-2.001H21.001z" clip-rule="evenodd"/><path fill="#fff" fill-rule="evenodd" d="M18.002,21.558	c0.795,0,1.44,0.647,1.44,1.441c0,0.795-0.645,1.441-1.44,1.441c-0.795,0-1.44-0.647-1.44-1.441	C16.562,22.205,17.207,21.558,18.002,21.558z" clip-rule="evenodd"/><path fill="#fff" fill-rule="evenodd" d="M21.001,26.999v2.001	h10.001v-2.001H21.001z" clip-rule="evenodd"/><path fill="#fff" fill-rule="evenodd" d="M18.002,26.558	c0.795,0,1.44,0.647,1.44,1.441c0,0.795-0.645,1.441-1.44,1.441c-0.795,0-1.44-0.647-1.44-1.441	C16.562,27.205,17.207,26.558,18.002,26.558z" clip-rule="evenodd"/><path fill="#fff" fill-rule="evenodd" d="M21.001,31.999v2.001	h10.001v-2.001H21.001z" clip-rule="evenodd"/><path fill="#fff" fill-rule="evenodd" d="M18.002,31.558	c0.795,0,1.44,0.647,1.44,1.441c0,0.795-0.645,1.441-1.44,1.441c-0.795,0-1.44-0.647-1.44-1.441	C16.562,32.205,17.207,31.558,18.002,31.558z" clip-rule="evenodd"/><path fill="#ce97e6" fill-rule="evenodd" d="M32.002,9.998	c1.104,0,2.001,0.897,2.001,2.001s-0.897,2.001-2.001,2.001s-2.001-0.897-2.001-2.001S30.898,9.998,32.002,9.998z" clip-rule="evenodd"/></svg>