<?xml version="1.0" encoding="utf-8"?>
<!-- Generator: Adobe Illustrator 22.0.1, SVG Export Plug-In . SVG Version: 6.00 Build 0)  -->
<svg version="1.0" id="Layer_1" xmlns="http://www.w3.org/2000/svg" xmlns:xlink="http://www.w3.org/1999/xlink" x="0px" y="0px"
	 viewBox="0 0 200 86" style="enable-background:new 0 0 200 86;" xml:space="preserve">
<style type="text/css">
	.st0{fill:#354045;}
	.st1{fill:#004876;}
	.st2{fill:#FFFFFF;}
	.st3{fill:#FFC629;}
</style>
<g>
	<path class="st0" d="M198,35.6c-0.7,0.7-1.5,1.3-2.4,1.6c-0.9,0.3-1.8,0.5-2.8,0.5c-1.3,0-2.4-0.2-3.2-0.6
		c-0.9-0.4-1.6-0.9-2.2-1.5c-0.6-0.6-1-1.3-1.2-2.1c-0.3-0.8-0.4-1.7-0.4-2.5c0-0.8,0.1-1.7,0.4-2.5c0.3-0.8,0.7-1.6,1.3-2.2
		c0.6-0.6,1.3-1.2,2.2-1.6c0.9-0.4,1.9-0.6,3.2-0.6c0.9,0,1.8,0.2,2.7,0.5c0.8,0.3,1.6,0.9,2.4,1.6l-2.3,2.2c-0.5-0.4-1-0.7-1.4-0.9
		c-0.5-0.1-0.9-0.2-1.4-0.2c-0.6,0-1.2,0.1-1.6,0.3c-0.4,0.2-0.8,0.5-1.1,0.9c-0.3,0.4-0.5,0.8-0.6,1.2c-0.1,0.4-0.2,0.9-0.2,1.3
		c0,0.4,0.1,0.8,0.2,1.3c0.1,0.4,0.3,0.8,0.6,1.2c0.3,0.3,0.6,0.6,1.1,0.8c0.4,0.2,1,0.3,1.6,0.3c0.5,0,1-0.1,1.5-0.3
		c0.6-0.2,1.1-0.5,1.5-1L198,35.6z"/>
	<path class="st0" d="M116.4,45.6c-0.4-0.3-0.9-0.6-1.4-0.7c-0.5-0.1-1-0.2-1.6-0.2c-0.2,0-0.4,0-0.6,0.1c-0.2,0-0.4,0.1-0.6,0.2
		c-0.2,0.1-0.3,0.2-0.4,0.3c-0.1,0.1-0.2,0.3-0.2,0.4c0,0.2,0.1,0.4,0.2,0.5c0.1,0.1,0.3,0.2,0.4,0.3c0.2,0.1,0.4,0.1,0.7,0.2
		c0.3,0,0.6,0.1,0.9,0.1c0.6,0.1,1.3,0.2,1.9,0.4c0.6,0.2,1.2,0.4,1.7,0.8c0.5,0.3,0.9,0.8,1.2,1.3c0.3,0.5,0.5,1.1,0.5,1.9
		c0,0.7-0.2,1.4-0.5,1.9c-0.3,0.5-0.7,1-1.3,1.3c-0.5,0.3-1.1,0.6-1.8,0.8c-0.7,0.2-1.4,0.2-2.1,0.2c-0.6,0-1.1,0-1.6-0.1
		c-0.5-0.1-1-0.2-1.5-0.3c-0.5-0.2-0.9-0.4-1.3-0.7c-0.4-0.3-0.9-0.7-1.3-1.2l2-2.3c0.3,0.3,0.7,0.6,1,0.8c0.3,0.2,0.7,0.3,1,0.4
		c0.3,0.1,0.6,0.2,1,0.2c0.3,0,0.6,0.1,0.9,0.1c0.6,0,1.1-0.1,1.5-0.3c0.4-0.2,0.6-0.5,0.6-0.8c0-0.7-0.7-1.1-2.2-1.2
		c-0.7-0.1-1.4-0.2-2-0.3c-0.6-0.1-1.2-0.4-1.7-0.7c-0.5-0.3-0.9-0.7-1.2-1.2c-0.3-0.5-0.4-1.2-0.4-2c0-0.7,0.2-1.3,0.5-1.8
		c0.3-0.5,0.7-0.9,1.2-1.2c0.5-0.3,1.1-0.6,1.7-0.7c0.7-0.1,1.3-0.2,2-0.2c1,0,1.8,0.1,2.6,0.3c0.8,0.2,1.5,0.6,2.2,1.2L116.4,45.6z
		"/>
	<path class="st0" d="M128.5,46.4l2.8-4.4h4.1v0.2l-5.1,7.6v5.2h-3.7v-5.2l-4.9-7.7V42h4.1L128.5,46.4z"/>
	<path class="st0" d="M146.9,45.6c-0.4-0.3-0.9-0.6-1.4-0.7c-0.5-0.1-1-0.2-1.6-0.2c-0.2,0-0.4,0-0.6,0.1c-0.2,0-0.4,0.1-0.6,0.2
		c-0.2,0.1-0.3,0.2-0.4,0.3c-0.1,0.1-0.2,0.3-0.2,0.4c0,0.2,0.1,0.4,0.2,0.5c0.1,0.1,0.3,0.2,0.4,0.3c0.2,0.1,0.4,0.1,0.7,0.2
		c0.3,0,0.6,0.1,0.9,0.1c0.6,0.1,1.3,0.2,1.9,0.4c0.6,0.2,1.2,0.4,1.7,0.8c0.5,0.3,0.9,0.8,1.2,1.3c0.3,0.5,0.5,1.1,0.5,1.9
		c0,0.7-0.2,1.4-0.5,1.9c-0.3,0.5-0.7,1-1.3,1.3c-0.5,0.3-1.1,0.6-1.8,0.8c-0.7,0.2-1.4,0.2-2.1,0.2c-0.6,0-1.1,0-1.6-0.1
		c-0.5-0.1-1-0.2-1.5-0.3c-0.5-0.2-0.9-0.4-1.3-0.7c-0.4-0.3-0.9-0.7-1.3-1.2l2-2.3c0.3,0.3,0.7,0.6,1,0.8c0.3,0.2,0.7,0.3,1,0.4
		c0.3,0.1,0.6,0.2,1,0.2c0.3,0,0.6,0.1,0.9,0.1c0.6,0,1.1-0.1,1.5-0.3c0.4-0.2,0.6-0.5,0.6-0.8c0-0.7-0.7-1.1-2.2-1.2
		c-0.7-0.1-1.4-0.2-2-0.3c-0.6-0.1-1.2-0.4-1.7-0.7c-0.5-0.3-0.9-0.7-1.2-1.2c-0.3-0.5-0.4-1.2-0.4-2c0-0.7,0.2-1.3,0.5-1.8
		c0.3-0.5,0.7-0.9,1.2-1.2c0.5-0.3,1.1-0.6,1.7-0.7c0.7-0.1,1.3-0.2,2-0.2c1,0,1.8,0.1,2.6,0.3c0.8,0.2,1.5,0.6,2.2,1.2L146.9,45.6z
		"/>
	<path class="st0" d="M156.8,45H153v-3h11.2v3h-3.8v9.9h-3.6V45z"/>
	<path class="st0" d="M179.1,54.9h-10.4V42h10.1V45h-6.5v1.9h6.1v3h-6.1v2h6.8V54.9z"/>
	<path class="st0" d="M194.2,47.2l-3.3,3.9h-0.6l-3.2-3.9v7.7h-3.6V42h3.8l3.4,4.4L194,42h3.8v13h-3.6V47.2z"/>
	<path class="st0" d="M164.8,24.4v7.3c0,1-0.1,1.8-0.4,2.6c-0.3,0.7-0.7,1.4-1.2,1.9c-0.5,0.5-1.2,0.9-1.9,1.2
		c-0.8,0.3-1.6,0.4-2.6,0.4c-0.9,0-1.8-0.1-2.6-0.4c-0.8-0.3-1.4-0.6-1.9-1.1c-0.5-0.5-0.9-1.1-1.2-1.9c-0.3-0.7-0.4-1.6-0.4-2.6
		v-7.2h3.7v7.2c0,1,0.2,1.8,0.7,2.2c0.4,0.4,1,0.7,1.8,0.7c0.7,0,1.3-0.2,1.8-0.7c0.4-0.4,0.7-1.2,0.7-2.2v-7.3H164.8z"/>
	<path class="st0" d="M178,31.4c0-0.4,0-0.7-0.1-1c0-0.3,0-0.5,0-0.7c0-0.2,0-0.4,0-0.5c0-0.1,0-0.3,0-0.4v-4.4h3.7v13h-3.1l-5.4-7
		l0.1,2.8v4.2h-3.7v-13h3.1L178,31.4z"/>
	<g>
		<path class="st0" d="M111.4,26.5h-4.1v-1.8c3.6,0,6.7,0,10.3,0v1.8h-4.1v10.8h-2V26.5z"/>
		<path class="st0" d="M129.8,37.3v-5.2h-6.7v5.2h-2V24.7h2v5.5h6.7v-5.5h2v12.6H129.8z"/>
		<path class="st0" d="M144.8,37.3h-9.3c0-4.2,0-8.4,0-12.6h9.2v2h-7.2v3.4h6.9v1.9h-6.9v3.4h7.3V37.3z"/>
	</g>
	<g>
		<polygon class="st1" points="32,24.1 94.3,24.1 99.6,35.9 95.1,41 87.2,41 91.3,45.3 87.7,49.4 80.3,49.4 70,61.2 65.9,61.2 
			51.2,48.1 41.7,48.1 37.3,43.5 19.3,43.5 14.4,46.7 2,46.7 2,43.3 		"/>
		<g>
			<path class="st2" d="M63.1,29.8l1.5,4.6l4.8,0c0.3,0,0.3,0.1,0.1,0.3l-3.9,2.8l1.5,4.6c0.1,0.3,0,0.4-0.3,0.2l-3.9-2.8L59,42.3
				c-0.2,0.2-0.4,0.1-0.3-0.2l1.5-4.6l-3.9-2.8c-0.2-0.2-0.2-0.3,0.1-0.3l4.8,0l1.5-4.6C62.8,29.5,63,29.5,63.1,29.8"/>
			<path class="st3" d="M51.3,42.2c-0.2,0-0.3-0.1-0.4-0.3l-3.5-8.7c0-0.1-0.1-0.1-0.1,0v8.7c0,0.2-0.2,0.4-0.4,0.4h-0.9
				c-0.2,0-0.4-0.2-0.4-0.4V30.2c0-0.2,0.2-0.4,0.4-0.4h1.5c0.2,0,0.3,0.1,0.4,0.3l3.5,8.7c0,0.1,0.1,0.1,0.1,0v-8.6
				c0-0.2,0.2-0.4,0.4-0.4h0.9c0.2,0,0.4,0.2,0.4,0.4v11.7c0,0.2-0.2,0.4-0.4,0.4H51.3z"/>
			<path class="st3" d="M80.5,38.7c0,2-1.6,3.7-4,3.7c-2.1,0-3.7-1.4-4-3.7c-0.2-1.4-0.2-3.9,0-5.3c0.2-1.9,1.6-3.7,4-3.7
				c2.1,0,4,1.4,4,3.7v0.2c0,0.2-0.2,0.4-0.4,0.4h-1c-0.2,0-0.4-0.2-0.4-0.4v-0.2c0-1.1-0.9-2-2.3-2c-1.1,0-2.1,0.7-2.3,2
				c-0.2,1.4-0.2,3.9,0,5.3c0.1,1,0.9,2,2.3,2c1.2,0,2.3-0.7,2.3-2v-0.2c0-0.2,0.2-0.4,0.4-0.4h1c0.2,0,0.4,0.2,0.4,0.4V38.7z"/>
		</g>
	</g>
</g>
</svg>
